# xmcd
# 
# Track frame offsets:
#     150
#     14561
#     30243
#     47289
#     61728
#     80182
#     102119
#     117315
#     133409
#     156769
#     174533
# 
# Disc length: 2554
# 
# Revision: 2
# Processed by: cddbd v1.5.2PL0 Copyright (c) Steve Scherf et al.
# Submitted via: fre:ac v1.0.31
# 
DISCID=8809f80b
DTITLE=Robben Ford - Into The Sun
DYEAR=2015
DGENRE=Blues
TTITLE0=Rose Of Sharon
TTITLE1=Day Of The Planets
TTITLE2=Howlin' At The Moon
TTITLE3=Rainbow Cover
TTITLE4=Justified
TTITLE5=Breath Of Me
TTITLE6=High Heels
TTITLE7=Cause Of War
TTITLE8=So Long 4 U
TTITLE9=Same Train
TTITLE10=Robben Ford with Tyler Bryant - Stone Cold Heaven
EXTD=YEAR: 2015
EXTT0=
EXTT1=
EXTT2=
EXTT3=
EXTT4=
EXTT5=
EXTT6=
EXTT7=
EXTT8=
EXTT9=
EXTT10=
PLAYORDER=
